<mxfile host="65bd71144e">
    <diagram id="TFqqVESlZAAxuIw7TCiq" name="第 1 页">
        <mxGraphModel dx="374" dy="308" grid="1" gridSize="10" guides="1" tooltips="1" connect="1" arrows="1" fold="1" page="1" pageScale="1" pageWidth="827" pageHeight="1169" math="0" shadow="0">
            <root>
                <mxCell id="0"/>
                <mxCell id="1" parent="0"/>
                <mxCell id="15" value="" style="group" parent="1" vertex="1" connectable="0">
                    <mxGeometry x="480" y="240" width="135" height="85" as="geometry"/>
                </mxCell>
                <mxCell id="16" value="" style="whiteSpace=wrap;html=1;fontSize=10;fillColor=#647687;fontColor=#ffffff;strokeColor=#314354;" parent="15" vertex="1">
                    <mxGeometry width="120" height="80" as="geometry"/>
                </mxCell>
                <mxCell id="17" style="edgeStyle=none;html=1;exitX=0;exitY=0.25;exitDx=0;exitDy=0;entryX=1;entryY=0.25;entryDx=0;entryDy=0;fontSize=10;endArrow=none;endFill=0;" parent="15" source="16" target="16" edge="1">
                    <mxGeometry relative="1" as="geometry"/>
                </mxCell>
                <mxCell id="18" value="ControlDecorator" style="text;html=1;align=center;verticalAlign=middle;resizable=0;points=[];autosize=1;strokeColor=none;fillColor=none;fontSize=10;" parent="15" vertex="1">
                    <mxGeometry x="10" width="100" height="30" as="geometry"/>
                </mxCell>
                <mxCell id="19" value="+ControlDecorator(Control*)&lt;br&gt;&lt;i&gt;+draw()&lt;/i&gt;&lt;br&gt;-mCtrl" style="text;html=1;align=center;verticalAlign=middle;resizable=0;points=[];autosize=1;strokeColor=none;fillColor=none;fontSize=10;" parent="15" vertex="1">
                    <mxGeometry x="-15" y="35" width="150" height="50" as="geometry"/>
                </mxCell>
                <mxCell id="20" style="edgeStyle=none;html=1;exitX=0;exitY=0.25;exitDx=0;exitDy=0;entryX=1;entryY=0.25;entryDx=0;entryDy=0;fontSize=10;endArrow=none;endFill=0;" parent="15" edge="1">
                    <mxGeometry relative="1" as="geometry">
                        <mxPoint y="40" as="sourcePoint"/>
                        <mxPoint x="120" y="40" as="targetPoint"/>
                    </mxGeometry>
                </mxCell>
                <mxCell id="22" style="edgeStyle=orthogonalEdgeStyle;rounded=0;html=1;endArrow=none;endFill=0;" parent="1" source="10" edge="1">
                    <mxGeometry relative="1" as="geometry">
                        <mxPoint x="420" y="220.00000000000006" as="targetPoint"/>
                        <Array as="points">
                            <mxPoint x="300" y="220"/>
                        </Array>
                    </mxGeometry>
                </mxCell>
                <mxCell id="10" value="" style="whiteSpace=wrap;html=1;fontSize=10;" parent="1" vertex="1">
                    <mxGeometry x="240" y="240" width="120" height="80" as="geometry"/>
                </mxCell>
                <mxCell id="11" style="edgeStyle=none;html=1;exitX=0;exitY=0.25;exitDx=0;exitDy=0;entryX=1;entryY=0.25;entryDx=0;entryDy=0;fontSize=10;endArrow=none;endFill=0;" parent="1" source="10" target="10" edge="1">
                    <mxGeometry relative="1" as="geometry"/>
                </mxCell>
                <mxCell id="12" value="ListCtrl" style="text;html=1;align=center;verticalAlign=middle;resizable=0;points=[];autosize=1;strokeColor=none;fillColor=none;fontSize=10;" parent="1" vertex="1">
                    <mxGeometry x="275" y="240" width="50" height="30" as="geometry"/>
                </mxCell>
                <mxCell id="13" value="&lt;i&gt;+draw()&lt;/i&gt;" style="text;html=1;align=center;verticalAlign=middle;resizable=0;points=[];autosize=1;strokeColor=none;fillColor=none;fontSize=10;" parent="1" vertex="1">
                    <mxGeometry x="270" y="285" width="60" height="30" as="geometry"/>
                </mxCell>
                <mxCell id="14" style="edgeStyle=none;html=1;exitX=0;exitY=0.25;exitDx=0;exitDy=0;entryX=1;entryY=0.25;entryDx=0;entryDy=0;fontSize=10;endArrow=none;endFill=0;" parent="1" edge="1">
                    <mxGeometry relative="1" as="geometry">
                        <mxPoint x="240" y="280" as="sourcePoint"/>
                        <mxPoint x="360" y="280" as="targetPoint"/>
                    </mxGeometry>
                </mxCell>
                <mxCell id="3" value="" style="whiteSpace=wrap;html=1;fontSize=10;" parent="1" vertex="1">
                    <mxGeometry x="360" y="120" width="120" height="80" as="geometry"/>
                </mxCell>
                <mxCell id="4" style="edgeStyle=none;html=1;exitX=0;exitY=0.25;exitDx=0;exitDy=0;entryX=1;entryY=0.25;entryDx=0;entryDy=0;fontSize=10;endArrow=none;endFill=0;" parent="1" source="3" target="3" edge="1">
                    <mxGeometry relative="1" as="geometry"/>
                </mxCell>
                <mxCell id="5" value="Control" style="text;html=1;align=center;verticalAlign=middle;resizable=0;points=[];autosize=1;strokeColor=none;fillColor=none;fontSize=10;" parent="1" vertex="1">
                    <mxGeometry x="390" y="120" width="60" height="30" as="geometry"/>
                </mxCell>
                <mxCell id="6" value="&lt;i&gt;+draw()&lt;/i&gt;" style="text;html=1;align=center;verticalAlign=middle;resizable=0;points=[];autosize=1;strokeColor=none;fillColor=none;fontSize=10;" parent="1" vertex="1">
                    <mxGeometry x="390" y="165" width="60" height="30" as="geometry"/>
                </mxCell>
                <mxCell id="7" style="edgeStyle=none;html=1;exitX=0;exitY=0.25;exitDx=0;exitDy=0;entryX=1;entryY=0.25;entryDx=0;entryDy=0;fontSize=10;endArrow=none;endFill=0;" parent="1" edge="1">
                    <mxGeometry relative="1" as="geometry">
                        <mxPoint x="360" y="160" as="sourcePoint"/>
                        <mxPoint x="480" y="160" as="targetPoint"/>
                    </mxGeometry>
                </mxCell>
                <mxCell id="21" style="edgeStyle=orthogonalEdgeStyle;html=1;entryX=0.5;entryY=1;entryDx=0;entryDy=0;rounded=0;" parent="1" source="18" target="3" edge="1">
                    <mxGeometry relative="1" as="geometry">
                        <Array as="points">
                            <mxPoint x="540" y="220"/>
                            <mxPoint x="420" y="220"/>
                        </Array>
                    </mxGeometry>
                </mxCell>
                <mxCell id="23" value="继承" style="text;html=1;align=center;verticalAlign=middle;resizable=0;points=[];autosize=1;strokeColor=none;fillColor=none;" parent="1" vertex="1">
                    <mxGeometry x="395" y="225" width="50" height="30" as="geometry"/>
                </mxCell>
                <mxCell id="25" style="edgeStyle=orthogonalEdgeStyle;rounded=0;html=1;entryX=1.007;entryY=0.101;entryDx=0;entryDy=0;entryPerimeter=0;endArrow=classic;endFill=1;" parent="1" source="24" target="3" edge="1">
                    <mxGeometry relative="1" as="geometry">
                        <Array as="points">
                            <mxPoint x="630" y="250"/>
                            <mxPoint x="630" y="128"/>
                        </Array>
                    </mxGeometry>
                </mxCell>
                <mxCell id="24" value="" style="rhombus;whiteSpace=wrap;html=1;" parent="1" vertex="1">
                    <mxGeometry x="600" y="240" width="20" height="20" as="geometry"/>
                </mxCell>
                <mxCell id="26" value="组合" style="text;html=1;align=center;verticalAlign=middle;resizable=0;points=[];autosize=1;strokeColor=none;fillColor=none;" parent="1" vertex="1">
                    <mxGeometry x="545" y="215" width="50" height="30" as="geometry"/>
                </mxCell>
                <mxCell id="27" value="mCtrl-&amp;gt;draw();" style="whiteSpace=wrap;html=1;" parent="1" vertex="1">
                    <mxGeometry x="640" y="280" width="80" height="40" as="geometry"/>
                </mxCell>
                <mxCell id="28" style="edgeStyle=orthogonalEdgeStyle;rounded=0;html=1;entryX=0;entryY=0.5;entryDx=0;entryDy=0;endArrow=classic;endFill=1;dashed=1;" parent="1" source="19" target="27" edge="1">
                    <mxGeometry relative="1" as="geometry"/>
                </mxCell>
                <mxCell id="30" value="" style="whiteSpace=wrap;html=1;fontSize=10;" parent="1" vertex="1">
                    <mxGeometry x="380" y="360" width="120" height="80" as="geometry"/>
                </mxCell>
                <mxCell id="31" style="edgeStyle=none;html=1;exitX=0;exitY=0.25;exitDx=0;exitDy=0;entryX=1;entryY=0.25;entryDx=0;entryDy=0;fontSize=10;endArrow=none;endFill=0;" parent="1" source="30" target="30" edge="1">
                    <mxGeometry relative="1" as="geometry"/>
                </mxCell>
                <mxCell id="45" style="edgeStyle=orthogonalEdgeStyle;html=1;entryX=0.5;entryY=1;entryDx=0;entryDy=0;rounded=0;" edge="1" parent="1" source="32" target="16">
                    <mxGeometry relative="1" as="geometry">
                        <mxPoint x="440" y="330" as="targetPoint"/>
                    </mxGeometry>
                </mxCell>
                <mxCell id="32" value="ScrollDecorator" style="text;html=1;align=center;verticalAlign=middle;resizable=0;points=[];autosize=1;strokeColor=none;fillColor=none;fontSize=10;" parent="1" vertex="1">
                    <mxGeometry x="395" y="360" width="90" height="30" as="geometry"/>
                </mxCell>
                <mxCell id="33" value="&lt;i&gt;+draw()&lt;/i&gt;&lt;br&gt;+drawScroll()" style="text;html=1;align=center;verticalAlign=middle;resizable=0;points=[];autosize=1;strokeColor=none;fillColor=none;fontSize=10;" parent="1" vertex="1">
                    <mxGeometry x="400" y="400" width="80" height="40" as="geometry"/>
                </mxCell>
                <mxCell id="34" style="edgeStyle=none;html=1;exitX=0;exitY=0.25;exitDx=0;exitDy=0;entryX=1;entryY=0.25;entryDx=0;entryDy=0;fontSize=10;endArrow=none;endFill=0;" parent="1" edge="1">
                    <mxGeometry relative="1" as="geometry">
                        <mxPoint x="380" y="400" as="sourcePoint"/>
                        <mxPoint x="500" y="400" as="targetPoint"/>
                    </mxGeometry>
                </mxCell>
                <mxCell id="36" value="" style="whiteSpace=wrap;html=1;fontSize=10;" parent="1" vertex="1">
                    <mxGeometry x="580" y="360" width="120" height="80" as="geometry"/>
                </mxCell>
                <mxCell id="37" style="edgeStyle=none;html=1;exitX=0;exitY=0.25;exitDx=0;exitDy=0;entryX=1;entryY=0.25;entryDx=0;entryDy=0;fontSize=10;endArrow=none;endFill=0;" parent="1" source="36" target="36" edge="1">
                    <mxGeometry relative="1" as="geometry"/>
                </mxCell>
                <mxCell id="42" style="edgeStyle=orthogonalEdgeStyle;rounded=0;html=1;endArrow=none;endFill=0;" parent="1" source="38" edge="1">
                    <mxGeometry relative="1" as="geometry">
                        <mxPoint x="540" y="340" as="targetPoint"/>
                        <Array as="points">
                            <mxPoint x="640" y="340"/>
                        </Array>
                    </mxGeometry>
                </mxCell>
                <mxCell id="38" value="BorderDecorator" style="text;html=1;align=center;verticalAlign=middle;resizable=0;points=[];autosize=1;strokeColor=none;fillColor=none;fontSize=10;" parent="1" vertex="1">
                    <mxGeometry x="590" y="360" width="100" height="30" as="geometry"/>
                </mxCell>
                <mxCell id="39" value="&lt;i&gt;+draw()&lt;/i&gt;&lt;br&gt;+drawBorder()" style="text;html=1;align=center;verticalAlign=middle;resizable=0;points=[];autosize=1;strokeColor=none;fillColor=none;fontSize=10;" parent="1" vertex="1">
                    <mxGeometry x="595" y="400" width="90" height="40" as="geometry"/>
                </mxCell>
                <mxCell id="40" style="edgeStyle=none;html=1;exitX=0;exitY=0.25;exitDx=0;exitDy=0;entryX=1;entryY=0.25;entryDx=0;entryDy=0;fontSize=10;endArrow=none;endFill=0;" parent="1" edge="1">
                    <mxGeometry relative="1" as="geometry">
                        <mxPoint x="580" y="400" as="sourcePoint"/>
                        <mxPoint x="700" y="400" as="targetPoint"/>
                    </mxGeometry>
                </mxCell>
                <mxCell id="44" style="edgeStyle=orthogonalEdgeStyle;rounded=0;html=1;exitX=0;exitY=0.5;exitDx=0;exitDy=0;endArrow=none;endFill=0;dashed=1;" parent="1" source="43" target="39" edge="1">
                    <mxGeometry relative="1" as="geometry"/>
                </mxCell>
                <mxCell id="43" value="&lt;span style=&quot;font-size: 10px;&quot;&gt;ControlDecorator::draw();&lt;br&gt;drawBorder();&lt;br&gt;&lt;/span&gt;" style="whiteSpace=wrap;html=1;" parent="1" vertex="1">
                    <mxGeometry x="720" y="400" width="120" height="40" as="geometry"/>
                </mxCell>
                <mxCell id="46" value="" style="shape=singleArrow;whiteSpace=wrap;html=1;arrowWidth=0.4;arrowSize=0.4;rotation=30;" vertex="1" parent="1">
                    <mxGeometry x="374" y="325" width="40" height="15" as="geometry"/>
                </mxCell>
                <mxCell id="47" value="" style="shape=singleArrow;whiteSpace=wrap;html=1;arrowWidth=0.4;arrowSize=0.4;rotation=0;" vertex="1" parent="1">
                    <mxGeometry x="420" y="270" width="40" height="15" as="geometry"/>
                </mxCell>
                <mxCell id="48" value="被组合然后增加修饰" style="text;html=1;align=center;verticalAlign=middle;resizable=0;points=[];autosize=1;strokeColor=none;fillColor=none;" vertex="1" parent="1">
                    <mxGeometry x="355" y="290" width="130" height="30" as="geometry"/>
                </mxCell>
            </root>
        </mxGraphModel>
    </diagram>
</mxfile>